<?xml version="1.0" encoding="utf-8"?>
<!-- Generator: Adobe Illustrator 25.0.0, SVG Export Plug-In . SVG Version: 6.00 Build 0)  -->
<svg version="1.1" id="Ebene_1" xmlns="http://www.w3.org/2000/svg" xmlns:xlink="http://www.w3.org/1999/xlink" x="0px" y="0px"
	 viewBox="0 0 65.3 43.2" style="enable-background:new 0 0 65.3 43.2;" xml:space="preserve">
<style type="text/css">
	.st0{fill:#FFFFFF;}
	.st1{fill:#ACACAC;}
</style>
<g id="Ebene_2_1_">
	<g id="Ebene_1-2">
		<path class="st0" d="M13.1,21.1c-0.7-3.7,0.1-7.5,2.3-10.5c1.7-2.3,4.2-3.9,7-4.6c2.6-0.6,5.4-0.4,7.9,0.8c0.9,0.4,4,1.9,5.2,4.9
			c0.5,1.2,0.8,2.4,1,3.7c0.3,1.8,0.1,2.6,0.6,2.9c0.8,0.5,1.8-1.3,4.4-1.9c1.4-0.4,2.9-0.2,4.2,0.5c0.9,0.6,1.6,1.5,2,2.5
			c0.6,1.1,0.9,2.3,1.1,3.5c0.2,1.1,0.3,2.3,0.3,3.5c2.2-0.5,4.5-0.2,6.4,0.8c4.4,2.5,4.5,7.8,4.5,8c0,0,0,5.9-4.7,7.9H8.4
			c-1.7-0.7-3.3-1.8-4.6-3.1c-2.3-2.5-3.7-5.6-3.8-9c0-3.9,2.1-7.5,5.6-9.3C7.9,20.6,10.6,20.4,13.1,21.1z"/>
		<path class="st1" d="M33.8,7.2c2.9-4,7.4-6.6,12.3-7.2c4.8-0.4,9.6,1.3,13.1,4.5c3.6,3.2,5.8,7.8,6.1,12.7c0.2,4.8-1.6,9.5-4.8,13
			c0,0-3-7.6-10.3-5.3c0,0,0.9-6.3-3-9.4c-2.9-1.7-6.6-1.3-9,1.1C38.1,16.7,38.7,9.2,33.8,7.2z"/>
	</g>
</g>
</svg>
