<svg xmlns="http://www.w3.org/2000/svg" viewBox="0 0 59.94 37.51"><defs><style>.cls-1{fill:#f2f2f1;}</style></defs><g id="Ebene_2" data-name="Ebene 2"><g id="Ebene_1-2" data-name="Ebene 1"><path class="cls-1" d="M13.15,15.46A13.41,13.41,0,0,1,15.42,5a12.42,12.42,0,0,1,7-4.63,12.08,12.08,0,0,1,7.85.78c.87.41,4,1.88,5.19,4.9a18.61,18.61,0,0,1,1,3.72c.27,1.85.07,2.64.58,2.93.82.47,1.84-1.32,4.42-1.9a5.73,5.73,0,0,1,4.21.46,5.79,5.79,0,0,1,2,2.47,10.75,10.75,0,0,1,1.07,3.55A17.93,17.93,0,0,1,49,20.72a9,9,0,0,1,6.42.82c4.4,2.46,4.54,7.8,4.54,8,0,0,0,5.94-4.73,7.93H8.42a13.73,13.73,0,0,1-4.57-3.14,14.48,14.48,0,0,1-3.85-9,10.61,10.61,0,0,1,5.56-9.32A10.4,10.4,0,0,1,13.15,15.46Z"/></g></g></svg>