<?xml version="1.0" encoding="utf-8"?>
<!-- Generator: Adobe Illustrator 25.0.0, SVG Export Plug-In . SVG Version: 6.00 Build 0)  -->
<svg version="1.1" id="Ebene_1" xmlns="http://www.w3.org/2000/svg" xmlns:xlink="http://www.w3.org/1999/xlink" x="0px" y="0px"
	 viewBox="0 0 74.6 48.6" style="enable-background:new 0 0 74.6 48.6;" xml:space="preserve">
<style type="text/css">
	.st0{fill:#ACACAC;}
	.st1{fill:#F2F2F1;}
</style>
<g id="Ebene_2_1_">
	<g id="Ebene_1-2">
		<path class="st0" d="M70.1,21.5c-2-1.1-4.3-1.4-6.4-0.8c0-1.2-0.1-2.3-0.3-3.5c-0.1-1.2-0.5-2.4-1.1-3.6c-0.4-1-1.1-1.8-2-2.5
			c-1.3-0.7-2.8-0.8-4.2-0.5c-2.6,0.6-3.6,2.4-4.4,1.9c-0.5-0.3-0.3-1.1-0.6-2.9c-0.2-1.3-0.5-2.5-1-3.7c-1.2-3-4.3-4.5-5.2-4.9
			c-2.5-1.1-5.2-1.4-7.9-0.8c-2.8,0.7-5.3,2.3-7,4.6c-0.4,0.5-0.8,1.1-0.8,1.1c-0.6,0.9-1.1,1.8-1.5,2.8c1.4,0.1,2.7,0.5,3.9,1.1
			c1.2,0.6,2.2,1.3,3.1,2.2c0.8,0.8,1.5,1.7,2,2.7c0.6,1.3,1,2.7,1.1,4.1c0.1,1.4,0,2.3,0.4,2.5c0.7,0.4,1.4-1,3.5-1.6
			c1.3-0.5,2.7-0.5,4,0c1.1,0.5,2,1.3,2.7,2.3c0.8,1.2,1.3,2.5,1.6,3.9c0.3,1.2,0.5,2.5,0.7,3.7c2.2-0.3,4.4,0.2,6.3,1.4
			c2.2,1.4,3.7,3.7,4.2,6.3h8.6c4.7-2,4.7-7.9,4.7-7.9C74.7,29.3,74.5,24,70.1,21.5z"/>
		<path class="st1" d="M13.1,26.6c-0.7-3.7,0.1-7.5,2.3-10.5c1.7-2.3,4.2-3.9,7-4.6c2.6-0.6,5.4-0.4,7.9,0.8c0.9,0.4,4,1.9,5.2,4.9
			c0.5,1.2,0.8,2.4,1,3.7c0.3,1.9,0.1,2.6,0.6,2.9c0.8,0.5,1.8-1.3,4.4-1.9c1.4-0.4,2.9-0.2,4.2,0.5c0.9,0.6,1.6,1.5,2,2.5
			c0.6,1.1,0.9,2.3,1.1,3.5c0.2,1.1,0.3,2.3,0.3,3.5c2.2-0.5,4.5-0.2,6.4,0.8c4.4,2.5,4.5,7.8,4.5,8c0,0,0,5.9-4.7,7.9H8.4
			c-1.7-0.7-3.3-1.8-4.6-3.1c-2.3-2.5-3.7-5.6-3.8-9c0-3.9,2.1-7.5,5.6-9.3C7.9,26,10.6,25.8,13.1,26.6z"/>
	</g>
</g>
</svg>
