<svg xmlns="http://www.w3.org/2000/svg" viewBox="0 0 74.63 48.61"><defs><style>.cls-1{fill:#48484a;}.cls-2{fill:#f2f2f1;}</style></defs><g id="Ebene_2" data-name="Ebene 2"><g id="Ebene_1-2" data-name="Ebene 1"><path class="cls-1" d="M70.11,21.54a9,9,0,0,0-6.42-.82,17.93,17.93,0,0,0-.26-3.48,10.75,10.75,0,0,0-1.07-3.55,5.79,5.79,0,0,0-2-2.47,5.73,5.73,0,0,0-4.21-.46c-2.58.58-3.6,2.37-4.42,1.9-.51-.29-.31-1.08-.58-2.93a18.61,18.61,0,0,0-1-3.72c-1.22-3-4.32-4.49-5.19-4.9A12.08,12.08,0,0,0,37.09.33a12.42,12.42,0,0,0-7,4.63c-.36.48-.76,1.14-.77,1.14a27.94,27.94,0,0,0-1.55,2.8A12.23,12.23,0,0,1,31.72,10a11.72,11.72,0,0,1,3.15,2.22,11.56,11.56,0,0,1,2,2.7A12,12,0,0,1,38,19c.13,1.4,0,2.28.43,2.55.65.35,1.42-1,3.46-1.65a6,6,0,0,1,4,0,6.05,6.05,0,0,1,2.69,2.33,10.77,10.77,0,0,1,1.59,3.88,21.52,21.52,0,0,1,.66,3.72,9.57,9.57,0,0,1,6.28,1.38,9.75,9.75,0,0,1,4.2,6.26H69.9c4.73-2,4.73-7.93,4.73-7.93C74.65,29.34,74.51,24,70.11,21.54Z"/><path class="cls-2" d="M13.15,26.56a13.41,13.41,0,0,1,2.27-10.5,12.42,12.42,0,0,1,7-4.63,12.08,12.08,0,0,1,7.85.78c.87.41,4,1.88,5.19,4.9a18.61,18.61,0,0,1,1,3.72c.27,1.85.07,2.64.58,2.93.82.47,1.84-1.32,4.42-1.9a5.73,5.73,0,0,1,4.21.46,5.79,5.79,0,0,1,2,2.47,10.75,10.75,0,0,1,1.07,3.55A17.93,17.93,0,0,1,49,31.82a9,9,0,0,1,6.42.82c4.4,2.46,4.54,7.8,4.54,8,0,0,0,5.94-4.73,7.93H8.42a13.73,13.73,0,0,1-4.57-3.14,14.48,14.48,0,0,1-3.85-9,10.61,10.61,0,0,1,5.56-9.32A10.4,10.4,0,0,1,13.15,26.56Z"/></g></g></svg>