<?xml version="1.0" encoding="utf-8"?>
<!-- Generator: Adobe Illustrator 25.0.0, SVG Export Plug-In . SVG Version: 6.00 Build 0)  -->
<svg version="1.1" id="Ebene_1" xmlns="http://www.w3.org/2000/svg" xmlns:xlink="http://www.w3.org/1999/xlink" x="0px" y="0px"
	 viewBox="0 0 64.2 59.1" style="enable-background:new 0 0 64.2 59.1;" xml:space="preserve">
<style type="text/css">
	.st0{fill:#ACACAC;}
	.st1{fill:#67A1FF;}
	.st2{fill:#FFFFFF;}
</style>
<g id="Ebene_2_1_">
	<g id="Ebene_1-2">
		<path class="st0" d="M60.3,18.5c-1.7-0.9-3.7-1.2-5.5-0.7c0-1,0-2-0.2-3c-0.1-1.1-0.4-2.1-0.9-3.1c-0.4-0.9-1-1.6-1.8-2.1
			c-1.1-0.6-2.4-0.7-3.6-0.4c-2.2,0.5-3.1,2-3.8,1.6C44,10.6,44.2,9.9,44,8.4c-0.2-1.1-0.5-2.2-0.8-3.2c-0.9-1.9-2.5-3.4-4.5-4.2
			c-2.1-1-4.5-1.2-6.8-0.7c-2.4,0.6-4.5,2-6,4c-0.3,0.4-0.6,1-0.7,1c-0.5,0.8-0.9,1.6-1.3,2.4c1.2,0.1,2.3,0.5,3.4,1
			c1.9,0.9,3.5,2.4,4.5,4.2c0.5,1.1,0.9,2.3,1,3.5c0.1,1.2,0,2,0.4,2.2s1.2-0.9,3-1.4c1.1-0.4,2.3-0.4,3.4,0c1,0.4,1.8,1.1,2.3,2
			c0.7,1,1.1,2.1,1.4,3.3c0.3,1,0.5,2.1,0.6,3.2c1.9-0.2,3.8,0.2,5.4,1.2c1.9,1.2,3.2,3.2,3.6,5.4h7.4c4.1-1.7,4.1-6.8,4.1-6.8
			C64.2,25.2,64.1,20.6,60.3,18.5z"/>
		<ellipse transform="matrix(0.3572 -0.934 0.934 0.3572 -17.6183 62.0525)" class="st1" cx="36.3" cy="43.8" rx="2.5" ry="2"/>
		<path class="st2" d="M47.6,28.1c-1.7-0.9-3.7-1.2-5.5-0.7c0-1,0-2-0.2-3c-0.1-1.1-0.4-2.1-0.9-3c-0.4-0.9-1-1.6-1.8-2.1
			c-1.1-0.6-2.4-0.7-3.6-0.4c-2.2,0.5-3.1,2-3.8,1.6c-0.4-0.2-0.3-0.9-0.5-2.5c-0.2-1.1-0.5-2.2-0.9-3.2c-0.9-1.9-2.5-3.4-4.5-4.2
			c-2.1-1-4.5-1.2-6.8-0.7c-2.4,0.6-4.5,2-6,4c-1.9,2.6-2.6,5.9-1.9,9c-2.2-0.7-4.5-0.5-6.5,0.5C1.8,24.9,0,28,0,31.3
			c0.2,2.9,1.3,5.6,3.3,7.8c1.1,1.2,2.5,2.1,3.9,2.7h8.5c0.2-0.8,0.7-1.5,1.2-2c0.7-0.6,2.4-1.8,3.7-1c0.9,0.7,1.2,1.9,0.9,3h12.9
			c0.6-0.9,1.7-1.4,2.8-1.1c0.5,0.2,1,0.6,1.3,1.1l8.9,0.1c4.1-1.7,4.1-6.8,4.1-6.8C51.5,34.8,51.4,30.2,47.6,28.1z"/>
		<ellipse transform="matrix(0.5 -0.866 0.866 0.5 -29.1659 45.453)" class="st1" cx="24.8" cy="48" rx="3.3" ry="2"/>
		<ellipse transform="matrix(0.5 -0.866 0.866 0.5 -27.0188 37.18)" class="st1" cx="18.7" cy="42" rx="2.8" ry="1.8"/>
		<ellipse transform="matrix(0.5 -0.866 0.866 0.5 -31.2656 54.6731)" class="st1" cx="31.7" cy="54.4" rx="2.8" ry="1.8"/>
		<ellipse transform="matrix(0.3936 -0.9193 0.9193 0.3936 -39.4455 53.96)" class="st1" cx="21.2" cy="56.9" rx="2.3" ry="1.8"/>
		<ellipse transform="matrix(0.5 -0.866 0.866 0.5 -34.9515 37.7224)" class="st1" cx="15.2" cy="49.1" rx="3.6" ry="1.8"/>
	</g>
</g>
</svg>
