<?xml version="1.0" encoding="utf-8"?>
<!-- Generator: Adobe Illustrator 25.0.0, SVG Export Plug-In . SVG Version: 6.00 Build 0)  -->
<svg version="1.1" id="Ebene_1" xmlns="http://www.w3.org/2000/svg" xmlns:xlink="http://www.w3.org/1999/xlink" x="0px" y="0px"
	 viewBox="0 0 51.2 49.7" style="enable-background:new 0 0 51.2 49.7;" xml:space="preserve">
<style type="text/css">
	.st0{fill:#67A1FF;}
	.st1{fill:#F2F2F2;}
	.st2{fill:#EC6E4C;}
</style>
<g id="Ebene_2_1_">
	<g id="Ebene_1-2">
		<ellipse transform="matrix(0.3572 -0.934 0.934 0.3572 -12.1294 53.8521)" class="st0" cx="33.1" cy="35.7" rx="2.3" ry="1.8"/>
		<path class="st1" d="M43.4,21.4c-1.5-0.8-3.3-1.1-5-0.6c0-0.9-0.1-1.8-0.2-2.7c-0.1-1-0.4-1.9-0.8-2.8c-0.3-0.8-0.9-1.5-1.6-1.9
			c-1-0.5-2.2-0.7-3.3-0.4c-2,0.4-2.8,1.9-3.5,1.5c-0.4-0.2-0.2-0.9-0.5-2.3c-0.2-1-0.4-2-0.8-2.9c-0.8-1.7-2.3-3.1-4.1-3.8
			c-1.9-0.9-4.1-1.1-6.1-0.6c-2.2,0.5-4.1,1.8-5.5,3.6c-1.7,2.4-2.4,5.4-1.8,8.2c-2-0.6-4.1-0.4-5.9,0.5C1.7,18.5,0,21.3,0,24.4
			c0.2,2.6,1.2,5.1,3,7.1c1,1.1,2.2,1.9,3.6,2.5h7.8c0.2-0.7,0.6-1.3,1.1-1.8c0.6-0.6,2.2-1.6,3.3-0.9c0.8,0.7,1.1,1.7,0.8,2.7h11.7
			c0.6-0.8,1.6-1.2,2.6-1c0.5,0.2,0.9,0.5,1.2,1l8.2,0.1c3.7-1.6,3.7-6.3,3.7-6.3C47,27.5,46.9,23.3,43.4,21.4z"/>
		<ellipse transform="matrix(0.5 -0.866 0.866 0.5 -22.9471 39.3247)" class="st0" cx="22.6" cy="39.5" rx="3" ry="1.8"/>
		<ellipse transform="matrix(0.5 -0.866 0.866 0.5 -20.9973 31.7821)" class="st0" cx="17" cy="34.1" rx="2.5" ry="1.7"/>
		<ellipse transform="matrix(0.5 -0.866 0.866 0.5 -24.8567 47.7206)" class="st0" cx="28.9" cy="45.4" rx="2.5" ry="1.7"/>
		<ellipse transform="matrix(0.3936 -0.9193 0.9193 0.3936 -32.0869 46.6458)" class="st0" cx="19.3" cy="47.6" rx="2.1" ry="1.6"/>
		<ellipse transform="matrix(0.5 -0.866 0.866 0.5 -28.2166 32.2758)" class="st0" cx="13.8" cy="40.6" rx="3.3" ry="1.6"/>
		<path class="st2" d="M26.6,5.6c2.3-3.1,5.8-5.2,9.6-5.6c3.8-0.3,7.5,1,10.2,3.5c2.8,2.5,4.5,6.1,4.7,9.9c0.1,3.7-1.2,7.4-3.8,10.1
			c0,0-2.3-5.9-8.1-4.1c0,0,0.7-4.9-2.3-7.3c-2.3-1.3-5.1-1-7,0.8C30,13,30.4,7.2,26.6,5.6z"/>
	</g>
</g>
</svg>
