<svg xmlns="http://www.w3.org/2000/svg" viewBox="0 0 51.2 49.7"><defs><style>.cls-1{fill:#0a0a0c;}.cls-2{fill:#f2f2f2;}.cls-3{fill:#ec6e4c;}</style></defs><g id="Ebene_2" data-name="Ebene 2"><g id="Ebene_1-2" data-name="Ebene 1"><ellipse class="cls-1" cx="33.06" cy="35.74" rx="2.28" ry="1.82" transform="translate(-12.13 53.85) rotate(-69.07)"/><path class="cls-2" d="M43.43,21.37a7,7,0,0,0-5-.64A15.1,15.1,0,0,0,38.2,18a8.19,8.19,0,0,0-.84-2.78,4.63,4.63,0,0,0-1.59-1.94,4.48,4.48,0,0,0-3.3-.36c-2,.45-2.82,1.86-3.47,1.49-.4-.23-.24-.85-.45-2.3a14.72,14.72,0,0,0-.78-2.92A7.93,7.93,0,0,0,23.7,5.35a9.44,9.44,0,0,0-6.15-.61,9.77,9.77,0,0,0-5.46,3.63,10.53,10.53,0,0,0-1.78,8.23,8.14,8.14,0,0,0-5.95.47A8.31,8.31,0,0,0,0,24.38a11.35,11.35,0,0,0,3,7.05A10.81,10.81,0,0,0,6.6,33.89h7.75a4.2,4.2,0,0,1,1.14-1.8c.64-.58,2.22-1.63,3.35-.89a2.62,2.62,0,0,1,.83,2.69H31.39a2.4,2.4,0,0,1,2.58-1,2.07,2.07,0,0,1,1.15,1l8.15.06C47,32.32,47,27.66,47,27.66,47,27.49,46.87,23.3,43.43,21.37Z"/><ellipse class="cls-1" cx="22.58" cy="39.54" rx="2.97" ry="1.82" transform="translate(-22.95 39.32) rotate(-60)"/><ellipse class="cls-1" cx="17.02" cy="34.07" rx="2.53" ry="1.65" transform="translate(-20.99 31.78) rotate(-60)"/><ellipse class="cls-1" cx="28.9" cy="45.39" rx="2.53" ry="1.65" transform="translate(-24.86 47.72) rotate(-60)"/><ellipse class="cls-1" cx="19.31" cy="47.65" rx="2.13" ry="1.6" transform="translate(-32.09 46.64) rotate(-66.82)"/><ellipse class="cls-1" cx="13.84" cy="40.58" rx="3.28" ry="1.6" transform="translate(-28.22 32.27) rotate(-60)"/><path class="cls-3" d="M26.61,5.64A13.68,13.68,0,0,1,36.22.05,13.52,13.52,0,0,1,46.46,3.58a14.31,14.31,0,0,1,4.73,9.89A14.25,14.25,0,0,1,47.4,23.6s-2.32-5.93-8.08-4.12c0,0,.69-4.9-2.32-7.31A5.82,5.82,0,0,0,30,13S30.39,7.18,26.61,5.64Z"/></g></g></svg>