<?xml version="1.0" encoding="utf-8"?>
<!-- Generator: Adobe Illustrator 25.0.0, SVG Export Plug-In . SVG Version: 6.00 Build 0)  -->
<svg version="1.1" id="Ebene_1" xmlns="http://www.w3.org/2000/svg" xmlns:xlink="http://www.w3.org/1999/xlink" x="0px" y="0px"
	 viewBox="0 0 74.6 59" style="enable-background:new 0 0 74.6 59;" xml:space="preserve">
<style type="text/css">
	.st0{fill:#ACACAC;}
	.st1{fill:#EC6E4C;}
	.st2{fill:#F2F2F1;}
</style>
<g id="Ebene_2_1_">
	<g id="Ebene_1-2">
		<path class="st0" d="M70.1,21.5c-2-1.1-4.3-1.4-6.4-0.8c0-1.2-0.1-2.3-0.3-3.5c-0.1-1.2-0.5-2.4-1.1-3.6c-0.4-1-1.1-1.8-2-2.5
			c-1.3-0.7-2.8-0.8-4.2-0.5c-2.6,0.6-3.6,2.4-4.4,1.9c-0.5-0.3-0.3-1.1-0.6-2.9c-0.2-1.3-0.5-2.5-1-3.7c-1.2-3-4.3-4.5-5.2-4.9
			c-2.5-1.1-5.2-1.4-7.9-0.8c-2.8,0.7-5.3,2.3-7,4.6c-0.4,0.5-0.8,1.1-0.8,1.1c-0.6,0.9-1.1,1.8-1.5,2.8c1.4,0.1,2.7,0.5,3.9,1.1
			c1.2,0.6,2.2,1.3,3.1,2.2c0.8,0.8,1.5,1.7,2,2.7c0.6,1.3,1,2.7,1.1,4.1c0.1,1.4,0,2.3,0.4,2.5c0.7,0.4,1.4-1,3.5-1.6
			c1.3-0.5,2.7-0.5,4,0c1.1,0.5,2,1.3,2.7,2.3c0.8,1.2,1.3,2.5,1.6,3.9c0.3,1.2,0.5,2.5,0.7,3.7c2.2-0.3,4.4,0.2,6.3,1.4
			c2.2,1.4,3.7,3.7,4.2,6.3h8.6c4.7-2,4.7-7.9,4.7-7.9C74.7,29.3,74.5,24,70.1,21.5z"/>
		<path class="st1" d="M21.3,37h6.9l-4.1,7h5.1l-12,15h-1.5l4.5-10h-5L21.3,37z"/>
		<path class="st2" d="M55.4,32.6c-2-1.1-4.2-1.3-6.4-0.8c0-1.2-0.1-2.3-0.3-3.5c-0.1-1.2-0.5-2.4-1.1-3.5c-0.4-1-1.1-1.8-2-2.5
			c-1.3-0.7-2.8-0.8-4.2-0.5c-2.6,0.6-3.6,2.4-4.4,1.9c-0.5-0.3-0.3-1.1-0.6-2.9c-0.2-1.3-0.5-2.5-1-3.7c-1.2-3-4.3-4.5-5.2-4.9
			c-2.5-1.1-5.2-1.4-7.9-0.8c-2.8,0.7-5.3,2.3-7,4.6c-2.2,3-3,6.8-2.3,10.5c-2.5-0.8-5.2-0.6-7.6,0.6C2.1,29,0,32.6,0,36.5
			c0.2,3.4,1.6,6.5,3.8,9c1.3,1.3,2.8,2.4,4.6,3.1l5.6-0.1l6.4-13h10.2l-4.1,7.2l5.5,0.1l-4.5,5.9h27.7c4.7-2,4.7-7.9,4.7-7.9
			C59.9,40.4,59.8,35.1,55.4,32.6z"/>
	</g>
</g>
</svg>
