<svg xmlns="http://www.w3.org/2000/svg" viewBox="0 0 37.69 40.57"><defs><style>.cls-1{fill:#48484a;}</style></defs><g id="Ebene_2" data-name="Ebene 2"><g id="Ebene_1-2" data-name="Ebene 1"><path class="cls-1" d="M6.47,8.34a6.24,6.24,0,0,1-.25-1A1.7,1.7,0,0,1,6.4,6.24a1.65,1.65,0,0,1,1.18-.61c2.16-.38,2.1,1.56,2.49,3s1,2.83,1.32,4.27a3.16,3.16,0,0,0,2.82,2.43,3,3,0,0,0,2.44-1.22,3.39,3.39,0,0,0-.6-4.13c-1.06-1-2.16-2.07-3.17-3.16-.86-.93-2.36-1.91-1.29-3.33C12.9,1.71,14.16,3,15.31,4a7.14,7.14,0,0,0,1.24.71C17.61,3.15,16.16-.09,19.06,0c2.48.08,1.34,2.93,2,4.49C22.54,5,22.83,3.36,23.8,3a2,2,0,0,1,2.3.19C27,4,26.66,5,25.93,5.75,24.57,7.2,23.17,8.62,21.75,10A3.36,3.36,0,0,0,21,13.69a2.41,2.41,0,0,0,2.69,1.63,3.4,3.4,0,0,0,2.83-2.48c.35-1.11.67-2.22,1-3.32.55-1.57.09-4.35,2.78-3.77s.53,3,.85,4.62c1.93,1.21,3.9-3.18,5.45-.11,1.23,2.44-1.88,2.6-2.82,4,.4,1.07,1.48,1.09,2.35,1.43,1,.4,1.78,1.14,1.43,2.25-.41,1.33-1.47,1.55-2.8,1.16a36.16,36.16,0,0,0-6.27-1.49c-1.8-.18-3.31.78-3.25,2.86s1.73,2.79,3.41,2.72A27.77,27.77,0,0,0,33.5,22c1.39-.32,3.14-1.28,3.94.57.89,2.07-1.22,2.28-2.45,2.94-.4.22-.81.42-1.2.61.59,1.81,4.42,1.84,2.7,4.55-1.4,2.21-2.81-.27-4.22-.64L31.15,30c.1.35.19.7.29,1.05,0,1.54,1.08,3.77-1.29,4.14C28.42,35.47,28,33.6,27.71,32c-.18-1.14-.71-2.21-1-3.34-.42-1.78-1.37-3.1-3.23-3.33a2.37,2.37,0,0,0-2.44,1.35c-.83,1.95-.09,3.52,1.45,4.84A28.67,28.67,0,0,1,25,34c.86.94,2.39,1.91,1.28,3.33-1.33,1.71-2.6.47-3.72-.61a9.43,9.43,0,0,0-1.21-.84c-1.4,1.39.51,4.69-2.41,4.71s-1.26-3.2-2.64-4.86c-.62.58-1.16,1.15-1.77,1.64-1,.83-2.12,1.19-3,0-.73-1-.16-1.89.58-2.64,1.28-1.3,2.58-2.59,3.87-3.88a3.56,3.56,0,0,0,.7-4.14,2.21,2.21,0,0,0-2.47-1.25,3.23,3.23,0,0,0-2.84,2.45,11.69,11.69,0,0,1-.89,2.85c-.91,1.54,0,4.76-3,4.36C5,34.73,6.71,32,6.29,30.66c-2-.91-3.75,2.51-5.07-.1-1.45-2.87,2.14-2.7,3.15-4.42-1-.4-1.94-.79-2.89-1.21S-.33,23.86.13,22.67a2,2,0,0,1,2.49-1.11C4.56,22,6.46,22.63,8.41,23c2.19.41,4.17-.16,4.16-2.76,0-2.34-1.89-2.92-3.92-2.62A44.44,44.44,0,0,0,4.3,18.67c-1.56.4-3.53,1.43-4.18-.88-.57-2.06,1.69-2,2.92-2.64l1.27-.7C3.42,12.82-.13,13,1.15,10.23c1.13-2.41,2.77-.18,4.17.21.67.19,1.09.21,1.26,0,0,0,.1-.15,0-.78A5.05,5.05,0,0,0,6.47,8.34ZM21.69,20.39a2.6,2.6,0,0,0-2.79-2.78A2.41,2.41,0,0,0,16.3,20a2.48,2.48,0,0,0,2.48,3A2.59,2.59,0,0,0,21.69,20.39Z"/><path class="cls-1" d="M31.49,31.05c-.1-.35-.19-.7-.29-1.05l1.12.05Z"/></g></g></svg>