<?xml version="1.0" encoding="utf-8"?>
<!-- Generator: Adobe Illustrator 25.0.0, SVG Export Plug-In . SVG Version: 6.00 Build 0)  -->
<svg version="1.1" id="Ebene_1" xmlns="http://www.w3.org/2000/svg" xmlns:xlink="http://www.w3.org/1999/xlink" x="0px" y="0px"
	 viewBox="0 0 53.9 32.6" style="enable-background:new 0 0 53.9 32.6;" xml:space="preserve">
<style type="text/css">
	.st0{fill:#ACACAC;}
</style>
<g id="Ebene_2_1_">
	<g id="Ebene_1-2">
		<path class="st0" d="M32.4,2.8H16.4c-0.8,0-1.4-0.6-1.4-1.4c0,0,0,0,0,0l0,0C15,0.6,15.6,0,16.4,0c0,0,0,0,0,0h15.9
			c0.8,0,1.4,0.6,1.4,1.4c0,0,0,0,0,0l0,0C33.8,2.2,33.1,2.8,32.4,2.8L32.4,2.8z"/>
		<path class="st0" d="M35.1,8.8H4.4C3.6,8.8,3,8.2,3,7.4c0,0,0,0,0,0l0,0C3,6.6,3.6,6,4.4,6c0,0,0,0,0,0h30.7
			c0.8,0,1.4,0.6,1.4,1.4c0,0,0,0,0,0l0,0C36.5,8.2,35.9,8.8,35.1,8.8L35.1,8.8z"/>
		<path class="st0" d="M52.2,15.6H16c-0.9,0-1.7-0.8-1.7-1.7l0,0c0-0.9,0.8-1.7,1.7-1.7h36.1c0.9,0,1.7,0.8,1.7,1.7l0,0
			C53.9,14.8,53.1,15.6,52.2,15.6z"/>
		<path class="st0" d="M38,21.6H1.7c-0.9,0-1.7-0.8-1.7-1.7l0,0c0-0.9,0.8-1.7,1.7-1.7c0,0,0,0,0,0H38c0.9,0,1.7,0.8,1.7,1.7l0,0
			C39.7,20.8,38.9,21.6,38,21.6z"/>
		<path class="st0" d="M46.4,27.6H9.6c-0.9,0-1.7-0.8-1.7-1.7l0,0l0,0c0-0.9,0.8-1.7,1.7-1.7h0h36.8c0.9,0,1.7,0.8,1.7,1.7l0,0
			C48.1,26.8,47.4,27.6,46.4,27.6z"/>
		<path class="st0" d="M38.6,30.2H15.3c-0.6,0-1.2,0.5-1.2,1.2l0,0c0,0.6,0.5,1.2,1.2,1.2h23.3c0.6,0,1.2-0.5,1.2-1.2l0,0
			C39.8,30.8,39.3,30.2,38.6,30.2z"/>
	</g>
</g>
</svg>
