<svg xmlns="http://www.w3.org/2000/svg" viewBox="0 0 53.87 32.57"><defs><style>.cls-1{fill:#48484a;}</style></defs><g id="Ebene_2" data-name="Ebene 2"><g id="Ebene_1-2" data-name="Ebene 1"><path class="cls-1" d="M32.37,2.8H16.42A1.4,1.4,0,0,1,15,1.4h0A1.4,1.4,0,0,1,16.42,0H32.37a1.4,1.4,0,0,1,1.4,1.4h0A1.4,1.4,0,0,1,32.37,2.8Z"/><path class="cls-1" d="M35.12,8.8H4.42A1.4,1.4,0,0,1,3,7.4H3A1.4,1.4,0,0,1,4.42,6h30.7a1.4,1.4,0,0,1,1.4,1.4h0A1.4,1.4,0,0,1,35.12,8.8Z"/><path class="cls-1" d="M52.16,15.61H16.05a1.71,1.71,0,0,1-1.71-1.71h0a1.71,1.71,0,0,1,1.71-1.71H52.16a1.71,1.71,0,0,1,1.71,1.71h0A1.71,1.71,0,0,1,52.16,15.61Z"/><path class="cls-1" d="M38,21.56H1.71A1.71,1.71,0,0,1,0,19.85H0a1.71,1.71,0,0,1,1.71-1.71H38a1.71,1.71,0,0,1,1.71,1.71h0A1.72,1.72,0,0,1,38,21.56Z"/><path class="cls-1" d="M46.44,27.61H9.62A1.71,1.71,0,0,1,7.91,25.9h0a1.71,1.71,0,0,1,1.71-1.71H46.44a1.71,1.71,0,0,1,1.71,1.71h0A1.72,1.72,0,0,1,46.44,27.61Z"/><path class="cls-1" d="M38.62,30.25H15.34a1.16,1.16,0,0,0-1.16,1.16h0a1.16,1.16,0,0,0,1.16,1.16H38.62a1.16,1.16,0,0,0,1.16-1.16h0A1.16,1.16,0,0,0,38.62,30.25Z"/></g></g></svg>