<svg xmlns="http://www.w3.org/2000/svg" viewBox="0 0 64.19 59.14"><defs><style>.cls-1{fill:#48484a;}.cls-2{fill:#0a0a0c;}.cls-3{fill:#fff;}</style></defs><g id="Ebene_2" data-name="Ebene 2"><g id="Ebene_1-2" data-name="Ebene 1"><path class="cls-1" d="M60.29,18.52a7.78,7.78,0,0,0-5.52-.71,15,15,0,0,0-.22-3,9.1,9.1,0,0,0-.92-3.05,4.88,4.88,0,0,0-1.75-2.12,4.92,4.92,0,0,0-3.62-.4c-2.22.5-3.1,2-3.8,1.63-.44-.25-.27-.93-.5-2.52a16.15,16.15,0,0,0-.85-3.2A8.69,8.69,0,0,0,38.65,1,10.33,10.33,0,0,0,31.9.28a10.69,10.69,0,0,0-6,4c-.31.41-.65,1-.66,1a23.41,23.41,0,0,0-1.33,2.41,10.47,10.47,0,0,1,3.36,1,10.06,10.06,0,0,1,4.46,4.23,10.49,10.49,0,0,1,1,3.52c.11,1.2,0,2,.37,2.19s1.22-.86,3-1.42a5.12,5.12,0,0,1,3.42,0,5.21,5.21,0,0,1,2.31,2,9.23,9.23,0,0,1,1.37,3.34,18.79,18.79,0,0,1,.57,3.2,8.19,8.19,0,0,1,5.4,1.19,8.37,8.37,0,0,1,3.61,5.38h7.37c4.07-1.71,4.07-6.82,4.07-6.82C64.2,25.22,64.08,20.63,60.29,18.52Z"/><ellipse class="cls-2" cx="36.27" cy="43.82" rx="2.5" ry="1.99" transform="translate(-17.61 62.05) rotate(-69.07)"/><path class="cls-3" d="M47.64,28.06a7.78,7.78,0,0,0-5.52-.71,15,15,0,0,0-.22-3A9.1,9.1,0,0,0,41,21.31a4.88,4.88,0,0,0-1.75-2.12,4.92,4.92,0,0,0-3.62-.4c-2.22.5-3.1,2-3.8,1.63-.44-.25-.27-.93-.5-2.52a16.15,16.15,0,0,0-.85-3.2A8.69,8.69,0,0,0,26,10.49a10.33,10.33,0,0,0-6.75-.67,10.69,10.69,0,0,0-6,4,11.52,11.52,0,0,0-1.95,9,9,9,0,0,0-6.53.52,9.14,9.14,0,0,0-4.78,8A12.44,12.44,0,0,0,3.31,39.1a11.85,11.85,0,0,0,3.93,2.7h8.51a4.54,4.54,0,0,1,1.25-2c.7-.63,2.44-1.79,3.68-1a2.85,2.85,0,0,1,.91,2.95H34.45a2.62,2.62,0,0,1,2.83-1.14,2.36,2.36,0,0,1,1.27,1.07l8.94.07C51.56,40.09,51.56,35,51.56,35,51.55,34.77,51.43,30.18,47.64,28.06Z"/><ellipse class="cls-2" cx="24.78" cy="47.99" rx="3.26" ry="1.99" transform="translate(-29.17 45.45) rotate(-60)"/><ellipse class="cls-2" cx="18.69" cy="41.99" rx="2.78" ry="1.81" transform="translate(-27.02 37.18) rotate(-60)"/><ellipse class="cls-2" cx="31.71" cy="54.41" rx="2.78" ry="1.81" transform="translate(-31.26 54.67) rotate(-60)"/><ellipse class="cls-2" cx="21.19" cy="56.88" rx="2.33" ry="1.76" transform="translate(-39.45 53.97) rotate(-66.82)"/><ellipse class="cls-2" cx="15.19" cy="49.13" rx="3.6" ry="1.76" transform="translate(-34.95 37.72) rotate(-60)"/></g></g></svg>