<svg xmlns="http://www.w3.org/2000/svg" viewBox="0 0 53.88 32.56"><defs><style>.cls-1{fill:#48484a;}</style></defs><g id="Ebene_2" data-name="Ebene 2"><g id="Ebene_1-2" data-name="Ebene 1"><path class="cls-1" d="M32.38,2.8h-16A1.4,1.4,0,0,1,15,1.4h0A1.4,1.4,0,0,1,16.43,0h16a1.4,1.4,0,0,1,1.4,1.4h0A1.4,1.4,0,0,1,32.38,2.8Z"/><path class="cls-1" d="M35.13,8.8H4.43A1.4,1.4,0,0,1,3,7.4H3A1.4,1.4,0,0,1,4.43,6h30.7a1.4,1.4,0,0,1,1.4,1.4h0A1.4,1.4,0,0,1,35.13,8.8Z"/><path class="cls-1" d="M52.17,15.61H16.06a1.71,1.71,0,0,1-1.71-1.71h0a1.71,1.71,0,0,1,1.71-1.71H52.17a1.71,1.71,0,0,1,1.71,1.71h0A1.72,1.72,0,0,1,52.17,15.61Z"/><path class="cls-1" d="M38,21.55H1.71A1.71,1.71,0,0,1,0,19.84H0a1.71,1.71,0,0,1,1.71-1.71H38a1.71,1.71,0,0,1,1.71,1.71h0A1.7,1.7,0,0,1,38,21.55Z"/><path class="cls-1" d="M46.44,27.61H9.62A1.71,1.71,0,0,1,7.91,25.9h0a1.71,1.71,0,0,1,1.71-1.71H46.44a1.71,1.71,0,0,1,1.71,1.71h0A1.71,1.71,0,0,1,46.44,27.61Z"/><path class="cls-1" d="M38.62,30.24H15.34a1.16,1.16,0,0,0-1.16,1.16h0a1.16,1.16,0,0,0,1.16,1.16H38.62a1.16,1.16,0,0,0,1.16-1.16h0A1.16,1.16,0,0,0,38.62,30.24Z"/></g></g></svg>